<?xml version="1.0" encoding="UTF-8"?>
<!DOCTYPE svg PUBLIC "-//W3C//DTD SVG 1.1//EN" "http://www.w3.org/Graphics/SVG/1.1/DTD/svg11.dtd">
<!-- Creator: CorelDRAW X7 -->
<svg xmlns="http://www.w3.org/2000/svg" xml:space="preserve" width="3.12499in" height="3.12499in" version="1.1" style="shape-rendering:geometricPrecision; text-rendering:geometricPrecision; image-rendering:optimizeQuality; fill-rule:evenodd; clip-rule:evenodd"
viewBox="0 0 3125 3125"
 xmlns:xlink="http://www.w3.org/1999/xlink">
 <defs>
  <style type="text/css">
   <![CDATA[
    .fil0 {fill:#2D6CAD}
    .fil3 {fill:#3953A4}
    .fil2 {fill:#3E78B4}
    .fil1 {fill:#E93D41}
    .fil4 {fill:white}
   ]]>
  </style>
 </defs>
 <g id="Layer_x0020_1">
  <metadata id="CorelCorpID_0Corel-Layer"/>
  <g id="_1605054485088">
   <path class="fil0" d="M1057 2184l143 -136c-18,-48 -270,-261 -350,-375 -28,-41 -45,-61 -71,-107 -120,-208 -129,-509 -42,-739 37,-98 87,-158 135,-228l135 -132c96,-66 141,-115 301,-160 301,-83 602,-11 825,180 296,253 390,687 215,1054 -21,44 -42,72 -67,111 -28,43 -61,69 -83,103 25,53 90,71 138,145 62,-33 151,-175 193,-252 184,-338 141,-816 -75,-1111 -10,-14 -14,-20 -22,-31 -12,-15 -15,-21 -25,-34 -320,-412 -930,-540 -1415,-251 -165,98 -338,284 -419,458 -159,344 -130,755 58,1050 55,87 130,165 202,236 40,40 191,201 224,219z"/>
   <path class="fil1" d="M2256 1986l-148 -145 -554 551 -267 -264c-38,38 -130,121 -144,148l413 412 700 -702z"/>
   <polygon class="fil0" points="70,2950 1554,2950 1554,2765 70,2764 "/>
   <polygon class="fil1" points="1554,2950 3038,2950 3038,2764 1554,2765 "/>
   <path class="fil1" d="M1578 1281c0,-30 -3,-20 12,-34 17,34 2,55 28,96 19,30 32,60 -20,64 -28,-27 -20,-74 -20,-126zm-17 -506c14,10 19,14 22,54 1,27 -8,180 -22,198l0 422c49,20 33,53 52,99 11,27 43,58 82,44 -15,-18 -25,-10 -45,-29 26,-17 118,-9 89,-59 -27,-29 -41,25 -104,-7 -26,-103 93,-39 149,-74 71,-49 -25,-168 -8,-200 39,14 2,6 19,25 2,2 -8,18 22,7 37,-13 28,-103 -60,-68 -28,71 -3,169 -22,209 -54,28 -77,-22 -77,-78 -1,-87 35,-198 119,-229 148,-56 251,148 298,205 76,91 185,26 166,-99 -43,54 -96,49 -158,9 -76,-50 -281,-288 -409,-46 -13,26 -5,26 -13,16 -17,-14 10,-80 20,-100 51,-96 193,-134 290,-91 59,26 106,106 193,70 62,-27 59,-147 6,-194 -60,158 -237,47 -378,95 -68,23 -99,56 -130,108 -47,77 -26,111 -49,182 -10,-16 -10,-135 -11,-167 -4,-64 10,-86 40,-131 73,-113 131,-107 229,-119 149,-20 213,-181 31,-280 -41,-23 -86,-26 -124,-42 1,26 -5,3 12,27 20,32 34,47 36,96 4,71 -1,96 -40,136 -66,68 -94,84 -178,173 -5,-59 -3,-122 23,-165 59,-4 125,-7 149,-45 24,-40 12,-116 -5,-157 -22,-53 -50,-68 -98,-95 -41,-22 -83,-51 -117,-67l1 367z"/>
   <path class="fil0" d="M1533 1408c-52,0 -55,-16 -26,-63 25,-40 9,-62 25,-94 23,25 10,128 1,157zm28 41l0 -422c-12,-21 -15,-98 -17,-127 -2,-21 -2,-50 -1,-72 1,-31 2,-38 18,-53l-1 -367c-74,30 -189,102 -215,167 -18,45 -28,122 6,160 35,39 90,30 146,39 13,36 27,113 18,163 -24,-22 -21,-26 -38,-47 -17,-20 -27,-26 -48,-41 -25,-16 -24,-23 -47,-41 -59,-46 -94,-86 -86,-177 6,-58 31,-85 52,-123 -101,11 -192,65 -228,132 -52,98 53,180 138,188 99,9 155,15 225,123 31,47 41,73 39,136l-13 158c-13,-23 -3,-52 -16,-102 -8,-34 -19,-61 -35,-86 -132,-208 -311,-46 -458,-135 -38,-23 -24,-17 -47,-61 -56,38 -55,157 0,189 79,46 145,-42 194,-65 146,-67 341,41 317,196 -47,-39 -26,-90 -115,-119 -92,-29 -170,29 -230,81 -46,40 -112,99 -172,91 -36,-5 -47,-27 -68,-41 6,66 7,141 89,142 55,1 102,-67 126,-106 43,-71 162,-205 281,-125 102,69 126,337 24,298 -31,-12 -18,-47 -18,-107 3,-239 -172,-45 -57,-36 14,-18 3,-27 22,-35 15,33 -94,191 17,208 54,9 113,-7 128,24 14,30 -7,54 -34,55 -39,2 -36,-26 -75,-8 -4,56 42,46 94,57 -10,19 -7,6 -35,22 -15,9 -3,-1 -13,10 41,20 73,-17 83,-49 18,-52 2,-75 50,-94z"/>
   <path class="fil0" d="M1560 1895l-1 -47c-60,-3 -113,-55 -79,-112 22,46 16,68 81,69l-2 -43c-41,-3 -43,-11 -46,-55l25 20c14,7 9,3 23,5l-2 -98c-87,-1 -205,23 -294,32 -126,12 -173,-83 -262,-41 3,33 -7,17 17,38 20,-10 16,-26 37,-33 37,33 10,53 21,68 46,43 144,38 212,25 55,-10 162,-51 192,-52 1,49 -76,58 -42,147 19,49 56,78 120,77z"/>
   <path class="fil1" d="M1559 1634l2 98c44,-4 21,-13 50,-27 0,40 -5,36 -27,56l-25 1 2 43c71,-5 52,-22 82,-68 32,61 -24,109 -84,111l1 47c73,1 108,-30 127,-89 23,-76 -45,-97 -47,-135 32,-2 152,43 200,52 108,21 133,4 212,-26 -1,-13 -6,-33 -4,-43 5,-30 2,-15 18,-26 30,14 9,12 30,36 21,-9 20,-5 26,-27 -37,-45 -77,-23 -122,0 -134,68 -252,-5 -441,-3z"/>
   <path class="fil2" d="M1562 1614l-3 -142 -17 11c-2,129 -68,132 -173,139 -171,10 -41,-132 30,-137 15,-1 29,1 44,0l34 -8c-12,-63 -252,-8 -343,143 74,62 329,14 428,-6z"/>
   <path class="fil1" d="M1559 1472l3 142c128,13 321,70 426,5 -62,-119 -293,-214 -341,-145 44,25 94,-1 134,32 25,20 64,56 53,106 -42,17 -147,13 -191,-6 -62,-27 -58,-84 -61,-101 -6,-36 1,-26 -23,-33z"/>
   <path class="fil0" d="M1234 865l-9 -5c-42,-17 -107,-9 -138,-107 -5,-16 -5,-22 -7,-37 -1,-7 -2,-13 -3,-20 0,-2 -1,-4 -1,-6 -1,-2 -2,-5 -2,-6 -1,-2 -1,-4 -2,-6 -132,81 -113,268 55,242 55,-9 73,-31 107,-55z"/>
   <path class="fil1" d="M1890 860c46,52 157,93 221,28 31,-31 29,-89 12,-132 -18,-43 -38,-60 -75,-79 -13,153 -65,157 -158,183z"/>
   <path class="fil3" d="M887 1032c-42,259 181,183 176,51 -105,45 -156,-40 -176,-51z"/>
   <path class="fil1" d="M2059 1083c-11,92 145,188 179,50 3,-14 6,-36 5,-52 0,-10 -1,-16 -4,-25l-7 -17c0,-3 -2,-4 -3,-6 -39,33 -53,86 -170,50z"/>
   <path class="fil0" d="M1265 1820c56,0 133,-77 159,-110 -36,9 -82,24 -117,35 -51,16 -76,12 -130,19 15,42 36,56 88,56z"/>
   <path class="fil1" d="M1706 1713c1,1 18,28 26,36 10,9 16,13 29,22 42,30 76,58 134,44 37,-10 40,-14 49,-54 -112,3 -144,-27 -238,-48z"/>
   <path class="fil1" d="M2077 1433c74,28 120,-24 125,-77 -87,28 -102,-10 -121,-9 -27,31 -17,54 -4,86z"/>
   <path class="fil0" d="M917 1356c58,164 185,68 126,-9 -12,-2 5,-4 -9,3 -43,22 -37,27 -117,6z"/>
   <path class="fil4" d="M1559 1848c60,-2 116,-50 84,-111 -30,46 -11,63 -82,68 -65,-1 -59,-23 -81,-69 -34,57 19,109 79,112z"/>
   <path class="fil0" d="M1310 1827c17,49 84,54 118,46l-14 -109c-33,16 -64,44 -104,63z"/>
   <path class="fil1" d="M1695 1873c48,10 99,-10 116,-37 -7,-21 -30,-27 -48,-38 -20,-12 -31,-24 -52,-34 -1,45 -18,78 -16,109z"/>
   <path class="fil4" d="M1561 1027c14,-18 23,-171 22,-198 -3,-40 -8,-44 -22,-54 -16,15 -17,22 -18,53 -1,22 -1,51 1,72 2,29 5,106 17,127z"/>
   <path class="fil4" d="M1578 1281c0,52 -8,99 20,126 52,-4 39,-34 20,-64 -26,-41 -11,-62 -28,-96 -15,14 -12,4 -12,34z"/>
   <path class="fil4" d="M1533 1408c9,-29 22,-132 -1,-157 -16,32 0,54 -25,94 -29,47 -26,63 26,63z"/>
   <path class="fil0" d="M976 1467c22,38 43,65 98,53 12,-27 12,-33 4,-68 -28,11 -11,16 -44,20 -20,2 -41,-2 -58,-5z"/>
   <path class="fil1" d="M2046 1453c-34,107 76,76 99,15 -17,1 -35,6 -56,4 -26,-3 -20,-9 -43,-19z"/>
   <path class="fil4" d="M1561 1732c-14,-2 -9,2 -23,-5l-25 -20c3,44 5,52 46,55l25 -1c22,-20 27,-16 27,-56 -29,14 -6,23 -50,27z"/>
  </g>
 </g>
</svg>
