<?xml version="1.0" encoding="UTF-8"?>
<!DOCTYPE svg PUBLIC "-//W3C//DTD SVG 1.1//EN" "http://www.w3.org/Graphics/SVG/1.1/DTD/svg11.dtd">
<!-- Creator: CorelDRAW X7 -->
<svg xmlns="http://www.w3.org/2000/svg" xml:space="preserve" width="10in" height="10in" version="1.1" style="shape-rendering:geometricPrecision; text-rendering:geometricPrecision; image-rendering:optimizeQuality; fill-rule:evenodd; clip-rule:evenodd"
viewBox="0 0 10000 10000"
 xmlns:xlink="http://www.w3.org/1999/xlink">
 <defs>
  <style type="text/css">
   <![CDATA[
    .fil0 {fill:#028002}
    .fil9 {fill:#1B7B01}
    .fil6 {fill:#E6A525}
    .fil2 {fill:#EBFD23}
    .fil3 {fill:#F07417}
    .fil4 {fill:#F49C02}
    .fil5 {fill:#F50302}
    .fil1 {fill:#FAFA02}
    .fil8 {fill:#FDE826}
    .fil7 {fill:#FDFDFD}
   ]]>
  </style>
 </defs>
 <g id="Layer_x0020_1">
  <metadata id="CorelCorpID_0Corel-Layer"/>
  <g id="_2808567642208">
   <path class="fil0" d="M3485 7940l-5 -160 99 -12c38,-174 3,-453 16,-642 55,-19 98,-18 142,-1 31,86 13,430 12,552 -3,203 -42,318 -264,263zm2665 3l-135 2c1,-85 157,-772 184,-829l143 1 179 827 -158 1 -34 -163 -146 -4 -33 165zm-2384 -3c0,-80 116,-566 150,-712 4,-16 8,-33 12,-49l22 -58 138 -6c27,62 179,758 176,827l-151 3 -35 -165 -138 -1c-58,135 34,186 -174,161zm1903 2l-150 3c-46,-125 -54,-303 -116,-320 -21,42 -12,245 -18,314l-147 6c-16,-106 -17,-732 3,-827 260,-21 440,-9 411,290 -15,156 -98,123 -60,243 27,84 81,211 77,291zm12 -657l-3 -167 388 -4 8 164c-46,20 -69,13 -120,17l-3 644 -151 6 -8 -646 -111 -14zm-1451 -1111l-5 -294c75,-59 116,-64 175,-137 57,-70 65,-139 109,-201 121,-8 210,-39 210,81l0 990c0,206 66,210 -254,199 -22,-247 -11,-497 -13,-745 -81,25 -128,124 -222,107zm3137 -196c41,-27 74,-58 105,-74 -22,143 -109,280 -159,405 -55,140 -51,53 -132,220 -10,19 0,3 -11,19 -57,84 -34,-5 -68,123 -15,57 -133,186 -178,237 -2,3 -5,6 -7,8 -2,2 -5,5 -8,8l-88 88c-2,2 -5,6 -7,8 -2,2 -5,6 -7,8 -86,92 -47,63 -116,79 -348,81 -245,-1 -228,-156 19,-175 -42,-72 171,-289 36,-35 74,-95 122,-104 0,-108 19,-62 77,-155 39,-62 272,-444 279,-501 -24,-40 -8,-41 19,-89 88,40 84,111 147,136 47,-143 32,-145 56,-258 23,-110 59,-128 51,-260 -16,-42 -106,-59 -176,-181l-54 -95c-89,-132 -36,-83 -59,-223l-600 1 57 398 -291 -6 -61 -371 -273 3 -55 373 -264 -2c-7,-130 57,-270 54,-397l-89 7 -5 393 -272 -3 -5 -395 -124 -1 -59 381c-43,29 -29,8 -71,29l1 634c43,-27 214,-365 244,-432l228 3 4 733 95 11 -3 291 -94 11 -4 219 -228 -5 -4 -219 -235 4c-14,109 -14,568 20,651l8 64c22,67 130,570 127,634l-145 3 -8 -66c-23,179 28,505 -40,505 -42,-15 -24,25 -35,-55l1 -550 -99 1 -35 163 -247 -1 -102 -336c-65,66 -31,220 -44,339l-143 -8c-15,-110 -18,-736 6,-809 45,-17 79,-12 139,-8l5 277c-5,0 1,5 13,-10l119 -274 138 5c-1,51 -73,185 -100,233 -68,121 6,149 21,275l78 216c25,-135 60,-266 91,-402 76,-337 32,-312 160,-327l-1 -514c-48,-21 -36,5 -82,-29 -28,-521 86,-240 83,-577 -1,-210 11,-442 -1,-654l-84 -18 -54 -385 -111 2 -6 382c-71,25 -164,16 -243,7l-6 -393 -111 1c-38,67 -80,424 -414,426 -303,1 -342,-306 -402,-428l-714 4c-1,39 2,32 17,69 46,15 109,193 106,291l-198 -124c-49,-38 -60,-155 -171,-172 -2,86 -6,184 -2,269 4,117 25,21 24,236 0,86 20,164 43,234l62 174c14,20 11,13 23,25 49,-30 63,-54 118,-102 12,13 124,173 95,231l0 44c66,39 116,296 272,432 89,78 75,91 114,131 137,216 177,6 171,430 -76,4 -201,17 -259,-10 -13,-6 -56,-44 -77,-58 -230,-156 -199,-233 -311,-368 -37,-45 -24,-31 -52,-83 -22,-42 -26,-35 -52,-81 -77,-133 -117,-217 -153,-362 -14,-60 -81,-184 -82,-219 53,-2 72,13 156,55l5 -37c-4,-23 -14,-35 -20,-49 -91,-204 -115,-676 -123,-885 -110,-24 -165,58 -204,110 -100,136 -31,67 -71,134 -95,-74 -15,-209 -17,-318l-485 -2c-105,1 -130,10 -130,-32 -1,-56 85,-35 189,-34 76,1 412,15 457,-12 34,-20 16,-36 89,-88 3,-3 15,-11 19,-14 2,-2 7,-5 9,-7 2,-2 7,-5 10,-8 -14,-31 -22,-45 -38,-74 -59,-108 -91,-19 -91,-251 0,-116 16,-182 105,-282 3,-3 12,-12 15,-15l16 -15c50,15 82,102 133,46 26,-28 -61,-49 125,-288 24,-30 9,4 29,-47 7,-18 10,-44 20,-70l140 -301c39,-51 50,-23 57,-107 -134,-13 -63,22 -284,93 -4,-129 50,-163 130,-215 68,-44 42,-121 262,-94 0,-93 85,-358 196,-425 22,-13 45,-26 63,-39 37,-24 29,-29 89,-29 -6,92 -44,51 -14,148 38,-16 12,-4 45,-28l53 -36c3,-2 7,-4 9,-6 9,-7 84,-80 149,-118 44,-26 74,-18 127,-2l-84 191c-21,45 -47,49 -82,67 -46,23 -14,2 -46,30 -4,3 -31,31 -35,35 9,35 7,52 37,78l82 55c-19,51 -31,57 -79,88 -52,34 -58,55 -98,79 -108,67 -182,78 -206,89 -20,9 -48,-7 -41,141 6,131 -59,355 -163,349 23,-56 -8,-286 -36,-348l-30 -45c-43,76 -61,43 -121,194 -14,36 -32,86 -48,114 -27,48 -45,50 -52,109 -19,167 123,173 20,376 -12,23 -24,33 -29,47 -3,7 -8,-5 -7,32 0,28 4,39 33,45 14,3 0,15 82,3 34,-5 68,-16 116,-11 10,140 -93,338 -190,436 -61,61 -68,54 -26,126l782 3c39,-54 -9,-19 42,-57 53,-39 162,-84 232,-92 13,55 14,103 41,149l237 -5c25,-258 -223,-266 -353,-425 -138,-167 -168,-396 -119,-635 121,-587 747,-436 747,85 -45,29 -174,121 -236,129 -34,-58 -30,-132 -82,-185 -46,-49 -113,-49 -145,30 -107,259 312,317 423,565 83,184 38,245 64,439l107 -1 6 -1408c88,-12 316,-26 404,10l90 589 0 -1234c-132,34 -361,280 -519,339l198 -622c-104,-95 -493,-335 -532,-399 112,-39 507,1 666,-16 40,-70 90,-251 118,-338 17,-52 40,-116 55,-168 30,-107 -21,-146 49,-178 39,17 33,47 35,93 3,148 123,457 171,594l676 5c-18,57 -221,178 -267,210 -72,52 -212,136 -274,198l200 630c-88,-48 -171,-119 -256,-177 -65,-45 -193,-146 -252,-170l5 1470 139 -840c115,-5 282,-22 379,7 59,157 -22,1130 16,1405l108 3 265 -1408c71,-16 218,-18 287,3l244 1403 951 0c1,-111 15,-179 -83,-210 -228,-72 -195,-13 -279,-177 -35,-68 -35,-70 -28,-154l76 59c54,33 51,49 118,73 129,44 73,70 148,164 10,-181 -14,-250 -40,-398 -27,-157 -74,-208 -113,-337 -102,1 -97,18 -199,-36 -69,-36 -137,-76 -180,-142l-34 -66c34,4 84,13 121,20 249,55 168,105 238,163l3 -63c-18,-72 -63,-117 -76,-190 -14,-78 -59,-191 -138,-217 -149,-51 -420,55 -454,-195 50,23 31,37 79,53 39,13 87,5 128,6 99,1 117,45 203,40 -5,-96 -87,-131 -132,-200 -75,-113 -146,-195 -270,-247 -46,-19 -52,-17 -80,-54l-12 -18c-25,-43 -24,-69 -60,-118 -45,-61 -47,-21 -74,-79 89,-9 193,15 252,64 74,60 78,144 104,222 16,49 251,325 296,338 10,-104 24,-181 25,-291 -20,-16 -42,-29 -58,-42 63,-29 211,58 215,177 2,52 0,92 -24,136 -76,140 -9,72 -101,116 10,56 33,71 59,116 50,88 83,196 122,288 14,33 7,26 22,55 48,-26 31,-23 40,-76 14,-85 69,-172 108,-245 22,26 46,67 54,103 18,85 -40,277 -114,336l-21 14c47,217 134,269 141,548 126,-22 123,-219 162,-295 65,46 106,178 60,265 -43,79 -90,156 -182,168l1 324c233,14 477,4 712,3 89,-1 172,-32 181,51 -17,11 -6,7 -35,14 -119,28 -424,-8 -567,8 -2,94 61,169 -125,362 -38,39 2,23 -61,43 -41,12 -84,26 -126,61 -5,176 -95,434 -109,561 17,16 -30,19 43,15zm-5827 -872c93,1107 517,1854 1097,2410 2230,2134 5928,474 5795,-2795 -77,-1888 -1653,-3472 -3650,-3369 -1025,53 -1861,602 -2346,1156 -582,664 -975,1660 -896,2598z"/>
   <path class="fil1" d="M1540 5106c-79,-938 314,-1934 896,-2598 485,-554 1321,-1103 2346,-1156 1997,-103 3573,1481 3650,3369 133,3269 -3565,4929 -5795,2795 -580,-556 -1004,-1303 -1097,-2410zm925 -3795c-21,218 23,497 -7,706 -10,66 -253,232 -365,341 -1081,1046 -1043,1923 -1122,2083 -40,81 -469,310 -595,381l-61 47c80,69 276,166 382,228l204 106c49,25 51,36 61,90 90,460 91,620 315,1087 124,258 315,554 490,751 194,220 247,283 465,466 237,199 156,13 144,493 -2,115 -16,280 -6,388 81,-20 489,-247 576,-302 120,-77 137,-19 300,47 623,249 1101,362 1846,353 621,-7 1238,-164 1761,-409 305,-143 188,-132 627,77 74,36 226,123 296,139 9,-174 -31,-439 -39,-632 -8,-206 35,-165 282,-414 229,-230 408,-474 594,-794 163,-282 290,-655 362,-1010 14,-69 28,-242 48,-292 20,-51 60,-54 107,-73 66,-28 521,-293 540,-328 -74,-50 -444,-268 -563,-320 -127,-54 -116,-125 -143,-273 -121,-669 -471,-1236 -897,-1702 -249,-272 -269,-185 -237,-401 18,-121 75,-480 66,-579l-612 251c-79,37 -91,31 -160,-11 -540,-327 -1240,-498 -1894,-548 -599,-46 -1361,90 -1889,311 -285,120 -160,143 -593,-102 -81,-45 -198,-119 -283,-155z"/>
   <path class="fil2" d="M5314 5593l157 -3 2 725 94 25 -3 199 -93 18c-12,165 59,248 -147,208l-10 -218 -385 -6c-15,-315 41,-306 150,-519l235 -429zm2141 -409l0 -251 234 -1c-28,99 -163,182 -194,212l-40 40zm-258 -250l228 -3c36,186 -38,278 -40,428l-10 -22c-38,-155 -3,-198 -148,-357 -27,-29 -20,-30 -30,-46zm-1363 350l-180 2 327 -1791 210 -4c37,127 311,1709 309,1794l-194 -1 -63 -366c-75,-18 -263,-20 -348,-1l-61 367zm-541 -1140l3 716 -110 5c-9,-81 84,-643 107,-721zm-372 1137c-36,-248 -70,-493 -99,-733 -14,-121 -31,-241 -49,-364 -15,-101 -29,-339 -65,-372 -36,20 -33,-45 -32,156 0,64 1,128 1,192 -1,202 11,1048 -8,1127l-144 2c-22,-66 -22,-1638 -8,-1795 442,-6 283,-103 402,557 22,118 51,528 99,577 39,-44 178,-994 196,-1130l313 -7 0 1793 -183 1c-10,-205 15,-1469 -15,-1532 -45,14 -43,68 -56,171l-189 1275c-15,112 -43,97 -163,82zm-1338 -444c46,-22 109,-55 165,-57 34,74 41,254 207,249 124,-4 182,-162 147,-291 -54,-203 -334,-176 -450,-498 -175,-487 196,-970 489,-709 65,58 154,223 138,334 -35,36 -106,73 -147,87 -36,-50 -25,-88 -74,-146 -165,-195 -341,140 -179,297 146,142 380,172 430,517 39,278 -46,605 -262,679 -285,98 -471,-214 -464,-462zm1229 -2668c39,-59 138,-415 189,-532l180 532 581 6c-15,6 -183,134 -228,166 -75,53 -156,123 -234,162 0,151 141,391 158,544 -88,-40 -417,-307 -454,-310 -121,37 -336,255 -470,309l169 -526c-83,-88 -359,-242 -462,-349l571 -2zm-2083 2692c23,33 -9,6 28,29 27,16 15,8 44,13 -13,26 -22,20 -16,54 15,74 29,41 56,48 -15,-37 -18,-30 -17,-69l714 -4c60,122 99,429 402,428 334,-2 376,-359 414,-426l111 -1 6 393c79,9 172,18 243,-7l6 -382 111 -2 54 385 84 18c12,212 0,444 1,654 3,337 -111,56 -83,577 46,34 34,8 82,29l1 514c-128,15 -84,-10 -160,327 -31,136 -66,267 -91,402l-78 -216c-2,98 59,161 58,244l-6 44 -87 13c-38,-97 -73,-277 -112,-359 -43,24 -65,111 -65,183 -1,139 40,188 -102,174 -27,-82 -11,-296 -12,-395l5 -355c2,-5 4,-9 5,-14l14 -27c90,-3 95,5 91,129 -1,63 -3,140 11,191 32,-41 19,-14 22,-67 -12,15 -18,10 -13,10l-5 -277c-60,-4 -94,-9 -139,8 -24,73 -21,699 -6,809l143 8c13,-119 -21,-273 44,-339l102 336 247 1 35 -163 99 -1 -1 550c11,80 -7,40 35,55 68,0 17,-326 40,-505l8 66 145 -3c3,-64 -105,-567 -127,-634 -17,126 97,452 110,618 -3,0 -69,0 -73,-1 -121,-27 25,-170 -162,-168 -2,0 -42,3 -43,3 -83,16 -46,51 -64,104 -24,68 18,50 -86,50 -42,-60 -5,-112 13,-195l123 -572c56,-7 55,-15 128,-13 35,153 13,100 46,110 -34,-83 -34,-542 -20,-651l235 -4 4 219 228 5 4 -219 94 -11 3 -291 -95 -11 -4 -733 -228 -3c-30,67 -201,405 -244,432l-1 -634c42,-21 28,0 71,-29l59 -381 124 1 5 395 272 3 5 -393 89 -7c3,127 -61,267 -54,397l264 2 55 -373 273 -3 61 371 291 6 -57 -398 600 -1c23,140 -30,91 59,223l54 95c70,122 160,139 176,181 8,132 -28,150 -51,260 -24,113 -9,115 -56,258 -63,-25 -59,-96 -147,-136 -27,48 -43,49 -19,89l29 -44c60,31 43,29 79,76 31,40 50,35 43,99 6,-5 29,-27 39,-33 35,-18 23,0 65,-22 -73,4 -26,1 -43,-15 14,-127 104,-385 109,-561 42,-35 85,-49 126,-61 63,-20 23,-4 61,-43 186,-193 123,-268 125,-362 143,-16 448,20 567,-8 29,-7 18,-3 35,-14 -9,-83 -92,-52 -181,-51 -235,1 -479,11 -712,-3l-1 -324c92,-12 139,-89 182,-168 46,-87 5,-219 -60,-265 -39,76 -36,273 -162,295 -7,-279 -94,-331 -141,-548l21 -14c74,-59 132,-251 114,-336 -8,-36 -32,-77 -54,-103 -39,73 -94,160 -108,245 -9,53 8,50 -40,76 -15,-29 -8,-22 -22,-55 -39,-92 -72,-200 -122,-288 -26,-45 -49,-60 -59,-116 92,-44 25,24 101,-116 24,-44 26,-84 24,-136 -4,-119 -152,-206 -215,-177 16,13 38,26 58,42 -1,110 -15,187 -25,291 -45,-13 -280,-289 -296,-338 -26,-78 -30,-162 -104,-222 -59,-49 -163,-73 -252,-64 27,58 29,18 74,79 36,49 35,75 60,118l12 18c28,37 34,35 80,54 124,52 195,134 270,247 45,69 127,104 132,200 -86,5 -104,-39 -203,-40 -41,-1 -89,7 -128,-6 -48,-16 -29,-30 -79,-53 34,250 305,144 454,195 79,26 124,139 138,217 13,73 58,118 76,190l-3 63c-70,-58 11,-108 -238,-163 -37,-7 -87,-16 -121,-20l34 66c43,66 111,106 180,142 102,54 97,37 199,36 39,129 86,180 113,337 26,148 50,217 40,398 -75,-94 -19,-120 -148,-164 -67,-24 -64,-40 -118,-73l-76 -59c-7,84 -7,86 28,154 84,164 51,105 279,177 98,31 84,99 83,210l-951 0 -244 -1403c-69,-21 -216,-19 -287,-3l-265 1408 -108 -3c-38,-275 43,-1248 -16,-1405 -97,-29 -264,-12 -379,-7l-139 840 -5 -1470c59,24 187,125 252,170 85,58 168,129 256,177l-200 -630c62,-62 202,-146 274,-198 46,-32 249,-153 267,-210l-676 -5c-48,-137 -168,-446 -171,-594 -2,-46 4,-76 -35,-93 -70,32 -19,71 -49,178 -15,52 -38,116 -55,168 -28,87 -78,268 -118,338 -159,17 -554,-23 -666,16 39,64 428,304 532,399l-198 622c158,-59 387,-305 519,-339l0 1234 -90 -589c-88,-36 -316,-22 -404,-10l-6 1408 -107 1c-26,-194 19,-255 -64,-439 -111,-248 -530,-306 -423,-565 32,-79 99,-79 145,-30 52,53 48,127 82,185 62,-8 191,-100 236,-129 0,-521 -626,-672 -747,-85 -49,239 -19,468 119,635 130,159 378,167 353,425l-237 5c-27,-46 -28,-94 -41,-149 -70,8 -179,53 -232,92 -51,38 -3,3 -42,57l-782 -3z"/>
   <path class="fil3" d="M2465 1311c85,36 202,110 283,155 433,245 308,222 593,102 528,-221 1290,-357 1889,-311 654,50 1354,221 1894,548 69,42 81,48 160,11l612 -251c9,99 -48,458 -66,579 -32,216 -12,129 237,401 426,466 776,1033 897,1702 27,148 16,219 143,273 119,52 489,270 563,320 -19,35 -474,300 -540,328 -47,19 -87,22 -107,73 -20,50 -34,223 -48,292 -72,355 -199,728 -362,1010 -186,320 -365,564 -594,794 -247,249 -290,208 -282,414 8,193 48,458 39,632 -70,-16 -222,-103 -296,-139 -439,-209 -322,-220 -627,-77 -523,245 -1140,402 -1761,409 -745,9 -1223,-104 -1846,-353 -163,-66 -180,-124 -300,-47 -87,55 -495,282 -576,302 -10,-108 4,-273 6,-388 12,-480 93,-294 -144,-493 -218,-183 -271,-246 -465,-466 -175,-197 -366,-493 -490,-751 -224,-467 -225,-627 -315,-1087 -10,-54 -12,-65 -61,-90l-204 -106c-106,-62 -302,-159 -382,-228l61 -47c126,-71 555,-300 595,-381 79,-160 41,-1037 1122,-2083 112,-109 355,-275 365,-341 30,-209 -14,-488 7,-706zm-64 -95l2 803c-352,240 -710,628 -951,998 -245,375 -468,856 -536,1414 -79,67 -263,158 -361,215l-335 199c-20,16 -10,6 -24,24 99,93 321,194 455,276 308,188 222,58 291,431 34,189 97,390 163,560 195,504 495,954 878,1326 57,56 119,105 187,167 89,83 151,67 149,224 -3,242 -21,486 -18,727 92,-18 495,-249 597,-304 164,-89 140,-70 310,1 117,49 198,85 326,130 472,164 1207,296 1760,226 69,-9 142,2 210,-9 55,-9 142,-23 197,-31l197 -36c423,-100 630,-159 1010,-335 163,-75 144,-122 317,-32 107,55 529,273 618,290 5,-172 -53,-735 -46,-803 9,-81 89,-107 141,-154 185,-168 290,-332 399,-443 179,-182 442,-669 525,-912 50,-148 102,-275 139,-423 39,-158 72,-322 90,-485l705 -401c-24,-53 -111,-86 -199,-136 -76,-43 -143,-82 -215,-124 -314,-182 -316,-140 -342,-334 -43,-318 -206,-700 -358,-990 -73,-139 -178,-304 -252,-413 -46,-69 -101,-116 -155,-185l-321 -345c-105,-96 -70,-92 -54,-255 20,-192 71,-419 71,-608 -82,11 -538,213 -642,258 -178,77 -132,35 -290,-46 -408,-209 -537,-237 -992,-369 -262,-76 -513,-84 -793,-118 -557,-69 -1434,103 -1930,312 -161,68 -168,117 -323,31 -103,-58 -511,-309 -600,-321z"/>
   <path class="fil1" d="M2668 5978l33 26c38,-42 88,-104 145,-119 42,56 60,122 95,182 29,-58 -83,-218 -95,-231 -55,48 -69,72 -118,102 -12,-12 -9,-5 -23,-25l-62 -174c-23,-70 -43,-148 -43,-234 1,-215 -20,-119 -24,-236 -4,-85 0,-183 2,-269 111,17 122,134 171,172l198 124c3,-98 -60,-276 -106,-291 -27,-7 -41,26 -56,-48 -6,-34 3,-28 16,-54 -29,-5 -17,3 -44,-13 -37,-23 -5,4 -28,-29 -42,-72 -35,-65 26,-126 97,-98 200,-296 190,-436 -48,-5 -82,6 -116,11 -82,12 -68,0 -82,-3 -29,-6 -33,-17 -33,-45 -1,-37 4,-25 7,-32 5,-14 17,-24 29,-47 103,-203 -39,-209 -20,-376 7,-59 25,-61 52,-109 16,-28 34,-78 48,-114 60,-151 78,-118 121,-194l30 45c28,62 59,292 36,348 104,6 169,-218 163,-349 -7,-148 21,-132 41,-141 24,-11 98,-22 206,-89 40,-24 46,-45 98,-79 48,-31 60,-37 79,-88l-82 -55c-30,-26 -28,-43 -37,-78 4,-4 31,-32 35,-35 32,-28 0,-7 46,-30 35,-18 61,-22 82,-67l84 -191c-53,-16 -83,-24 -127,2 -65,38 -140,111 -149,118 -2,2 -6,4 -9,6l-53 36c-33,24 -7,12 -45,28 -30,-97 8,-56 14,-148 -60,0 -52,5 -89,29 -18,13 -41,26 -63,39 -111,67 -196,332 -196,425 -220,-27 -194,50 -262,94 -80,52 -134,86 -130,215 221,-71 150,-106 284,-93 -7,84 -18,56 -57,107l-140 301c-10,26 -13,52 -20,70 -20,51 -5,17 -29,47 -186,239 -99,260 -125,288 -51,56 -83,-31 -133,-46l-16 15c-3,3 -12,12 -15,15 -89,100 -105,166 -105,282 0,232 32,143 91,251 16,29 24,43 38,74 -3,3 -8,6 -10,8 -2,2 -7,5 -9,7 -4,3 -16,11 -19,14 -73,52 -55,68 -89,88 -45,27 -381,13 -457,12 -104,-1 -190,-22 -189,34 0,42 25,33 130,32l485 2c2,109 -78,244 17,318 40,-67 -29,2 71,-134 39,-52 94,-134 204,-110 8,209 32,681 123,885 6,14 16,26 20,49l-5 37z"/>
   <path class="fil4" d="M4921 5281c120,15 148,30 163,-82l189 -1275c13,-103 11,-157 56,-171 30,63 5,1327 15,1532l183 -1 0 -1793 -313 7c-18,136 -157,1086 -196,1130 -48,-49 -77,-459 -99,-577 -119,-660 40,-563 -402,-557 -14,157 -14,1729 8,1795l144 -2c19,-79 7,-925 8,-1127 0,-64 -1,-128 -1,-192 -1,-201 -4,-136 32,-156 36,33 50,271 65,372 18,123 35,243 49,364 29,240 63,485 99,733z"/>
   <path class="fil4" d="M5985 4581c5,-92 49,-456 87,-520l78 525 -165 -5zm-90 336c85,-19 273,-17 348,1l63 366 194 1c2,-85 -272,-1667 -309,-1794l-210 4 -327 1791 180 -2 61 -367z"/>
   <path class="fil4" d="M3583 4837c-7,248 179,560 464,462 216,-74 301,-401 262,-679 -50,-345 -284,-375 -430,-517 -162,-157 14,-492 179,-297 49,58 38,96 74,146 41,-14 112,-51 147,-87 16,-111 -73,-276 -138,-334 -293,-261 -664,222 -489,709 116,322 396,295 450,498 35,129 -23,287 -147,291 -166,5 -173,-175 -207,-249 -56,2 -119,35 -165,57z"/>
   <path class="fil5" d="M4812 2169l-571 2c103,107 379,261 462,349l-169 526c134,-54 349,-272 470,-309 37,3 366,270 454,310 -17,-153 -158,-393 -158,-544 78,-39 159,-109 234,-162 45,-32 213,-160 228,-166l-581 -6 -180 -532c-51,117 -150,473 -189,532z"/>
   <path class="fil4" d="M5314 5909c26,55 16,262 14,336 -2,78 -11,85 -86,88 -226,7 -187,-10 -68,-229 43,-78 89,-188 140,-195zm-235 113c-109,213 -165,204 -150,519l385 6 10 218c206,40 135,-43 147,-208l93 -18 3 -199 -94 -25 -2 -725 -157 3 -235 429z"/>
   <path class="fil6" d="M5393 7268l83 14c26,56 31,123 -2,180l-86 12 5 -206zm276 674c4,-80 -50,-207 -77,-291 -38,-120 45,-87 60,-243 29,-299 -151,-311 -411,-290 -20,95 -19,721 -3,827l147 -6c6,-69 -3,-272 18,-314 62,17 70,195 116,320l150 -3z"/>
   <path class="fil5" d="M7112 5902c-7,57 -240,439 -279,501 -58,93 -77,47 -77,155 -12,24 -164,171 -199,204 -59,57 -66,48 -69,146 -3,98 -25,92 -21,194 73,-30 211,-139 258,-201 52,-69 -9,-34 97,-140 35,-35 91,-85 116,-119l88 -135c24,-34 29,-40 50,-67 34,-45 20,-21 38,-84 34,-119 48,-81 97,-194 43,-101 42,-44 52,-129 7,-64 -12,-59 -43,-99 -36,-47 -19,-45 -79,-76l-29 44z"/>
   <path class="fil4" d="M4273 5908l0 206c178,-23 227,-372 227,115l1 533 164 2c15,-310 7,-858 4,-1173l-131 -2c-30,54 -63,143 -100,191 -56,73 -116,82 -165,128z"/>
   <path class="fil5" d="M2701 6004c15,79 251,543 303,614 78,109 352,415 468,457 7,-221 29,-225 -163,-388 13,-22 -8,-5 18,-13 -39,-40 -25,-53 -114,-131 -156,-136 -206,-393 -272,-432l0 -44c-35,-60 -53,-126 -95,-182 -57,15 -107,77 -145,119z"/>
   <path class="fil6" d="M3766 7940c208,25 116,-26 174,-161l138 1 35 165 151 -3c3,-69 -149,-765 -176,-827l-138 6 -22 58c-4,16 -8,33 -12,49 -34,146 -150,632 -150,712z"/>
   <path class="fil6" d="M6183 7778l146 4 34 163 158 -1 -179 -827 -143 -1c-27,57 -183,744 -184,829l135 -2 33 -165z"/>
   <path class="fil7" d="M3327 6674c-26,8 -5,-9 -18,13 192,163 170,167 163,388 -116,-42 -390,-348 -468,-457 -52,-71 -288,-535 -303,-614l-33 -26c-84,-42 -103,-57 -156,-55 1,35 68,159 82,219 36,145 76,229 153,362 26,46 30,39 52,81 28,52 15,38 52,83 112,135 81,212 311,368 21,14 64,52 77,58 58,27 183,14 259,10 6,-424 -34,-214 -171,-430z"/>
   <path class="fil7" d="M7367 5978c-42,22 -30,4 -65,22 -10,6 -33,28 -39,33 -10,85 -9,28 -52,129 -49,113 -63,75 -97,194 -18,63 -4,39 -38,84 -21,27 -26,33 -50,67l-88 135c-25,34 -81,84 -116,119 -106,106 -45,71 -97,140 -47,62 -185,171 -258,201 -4,-102 18,-96 21,-194 3,-98 10,-89 69,-146 35,-33 187,-180 199,-204 -48,9 -86,69 -122,104 -213,217 -152,114 -171,289 -17,155 -120,237 228,156 69,-16 30,13 116,-79 2,-2 5,-6 7,-8 2,-2 5,-6 7,-8l88 -88c3,-3 6,-6 8,-8 2,-2 5,-5 7,-8 45,-51 163,-180 178,-237 34,-128 11,-39 68,-123 11,-16 1,0 11,-19 81,-167 77,-80 132,-220 50,-125 137,-262 159,-405 -31,16 -64,47 -105,74z"/>
   <path class="fil6" d="M4463 7386c-3,53 10,26 -22,67 -14,-51 -12,-128 -11,-191 4,-124 -1,-132 -91,-129l-14 27c-1,5 -3,9 -5,14l-5 355c1,99 -15,313 12,395 142,14 101,-35 102,-174 0,-72 22,-159 65,-183 39,82 74,262 112,359l87 -13 6 -44c1,-83 -60,-146 -58,-244 -15,-126 -89,-154 -21,-275 27,-48 99,-182 100,-233l-138 -5 -119 274z"/>
   <path class="fil6" d="M5070 7307l-8 -64c-33,-10 -11,43 -46,-110 -73,-2 -72,6 -128,13l-123 572c-18,83 -55,135 -13,195 104,0 62,18 86,-50 18,-53 -19,-88 64,-104 1,0 41,-3 43,-3 187,-2 41,141 162,168 4,1 70,1 73,1 -13,-166 -127,-492 -110,-618z"/>
   <path class="fil6" d="M5792 7299l8 646 151 -6 3 -644c51,-4 74,3 120,-17l-8 -164 -388 4 3 167 111 14z"/>
   <path class="fil8" d="M4273 5908c49,-46 109,-55 165,-128 37,-48 70,-137 100,-191l131 2c3,315 11,863 -4,1173l-164 -2 -1 -533c0,-487 -49,-138 -227,-115l0 -206zm-43 266c94,17 141,-82 222,-107 2,248 -9,498 13,745 320,11 254,7 254,-199l0 -990c0,-120 -89,-89 -210,-81 -44,62 -52,131 -109,201 -59,73 -100,78 -175,137l5 294z"/>
   <path class="fil6" d="M3485 7940c222,55 261,-60 264,-263 1,-122 19,-466 -12,-552 -44,-17 -87,-18 -142,1 -13,189 22,468 -16,642l-99 12 5 160z"/>
   <path class="fil9" d="M5985 4581l165 5 -78 -525c-38,64 -82,428 -87,520z"/>
   <path class="fil8" d="M5141 6283c21,-92 104,-184 138,-253l-3 253 -135 0zm173 -374c-51,7 -97,117 -140,195 -119,219 -158,236 68,229 75,-3 84,-10 86,-88 2,-74 12,-281 -14,-336z"/>
   <path class="fil9" d="M5293 4144c-23,78 -116,640 -107,721l110 -5 -3 -716z"/>
   <path class="fil9" d="M7197 4934c10,16 3,17 30,46 145,159 110,202 148,357l10 22c2,-150 76,-242 40,-428l-228 3z"/>
   <path class="fil9" d="M7495 5144c31,-30 166,-113 194,-212l-234 1 0 251 40 -40z"/>
   <path class="fil9" d="M5388 7474l86 -12c33,-57 28,-124 2,-180l-83 -14 -5 206z"/>
   <path class="fil9" d="M5141 6283l135 0 3 -253c-34,69 -117,161 -138,253z"/>
  </g>
 </g>
</svg>
