<?xml version="1.0" encoding="UTF-8"?>
<!DOCTYPE svg PUBLIC "-//W3C//DTD SVG 1.1//EN" "http://www.w3.org/Graphics/SVG/1.1/DTD/svg11.dtd">
<!-- Creator: CorelDRAW X7 -->
<svg xmlns="http://www.w3.org/2000/svg" xml:space="preserve" width="10in" height="10in" version="1.1" style="shape-rendering:geometricPrecision; text-rendering:geometricPrecision; image-rendering:optimizeQuality; fill-rule:evenodd; clip-rule:evenodd"
viewBox="0 0 10000 10000"
 xmlns:xlink="http://www.w3.org/1999/xlink">
 <defs>
  <style type="text/css">
   <![CDATA[
    .fil0 {fill:#028002}
    .fil9 {fill:#1B7B01}
    .fil6 {fill:#E6A525}
    .fil2 {fill:#EBFD23}
    .fil3 {fill:#F07417}
    .fil4 {fill:#F49C02}
    .fil5 {fill:#F50302}
    .fil1 {fill:#FAFA02}
    .fil8 {fill:#FDE826}
    .fil7 {fill:#FDFDFD}
   ]]>
  </style>
 </defs>
 <g id="Layer_x0020_1">
  <metadata id="CorelCorpID_0Corel-Layer"/>
  <g id="_2808567652768">
   <path class="fil0" d="M4040 7014l-3 -113 70 -8c26,-123 2,-320 11,-453 39,-13 69,-12 100,-1 22,61 10,303 8,390 -2,143 -29,224 -186,185zm1879 2l-95 1c1,-59 111,-544 130,-584l101 1 126 583 -112 0 -23 -115 -103 -2 -24 116zm-1681 -2c1,-56 83,-399 107,-502 2,-11 5,-23 8,-34l15 -41 97 -5c20,44 127,535 125,583l-106 3 -25 -117 -98 -1c-41,96 24,132 -123,114zm1343 2l-106 2c-33,-89 -39,-214 -83,-226 -14,30 -8,173 -12,221l-104 5c-11,-75 -11,-517 2,-583 183,-15 311,-7 290,204 -11,110 -69,87 -42,171 19,60 57,149 55,206zm8 -464l-2 -117 273 -3 5 115c-32,14 -48,9 -84,12l-2 455 -106 3 -6 -455 -78 -10zm-1023 -783l-4 -208c53,-41 82,-44 124,-96 39,-49 46,-98 76,-141 86,-6 149,-28 149,57l-1 697c0,146 47,148 -178,141 -16,-174 -8,-350 -10,-526 -57,18 -90,88 -156,76zm2212 -138c28,-19 51,-41 74,-52 -16,101 -78,197 -113,285 -38,99 -35,38 -93,155 -7,13 0,2 -8,14 -40,59 -23,-4 -47,87 -11,40 -94,131 -126,167 -1,1 -4,4 -5,5 -2,2 -4,4 -5,6l-63 62c-1,1 -3,4 -4,5 -2,2 -4,4 -5,6 -61,65 -33,44 -82,56 -245,57 -173,-1 -161,-110 13,-123 -30,-51 121,-204 25,-25 51,-67 85,-73 1,-76 14,-44 55,-110 27,-43 191,-313 196,-353 -16,-28 -5,-29 14,-62 62,28 59,78 104,95 33,-100 22,-102 39,-182 16,-77 42,-90 36,-183 -11,-30 -75,-42 -124,-127l-38 -68c-63,-93 -25,-58 -42,-156l-423 0 40 280 -205 -3 -43 -262 -192 2 -39 263 -186 -1c-5,-92 40,-191 38,-280l-63 5 -3 277 -192 -2 -4 -279 -87 -1 -41 269c-31,20 -21,6 -51,21l1 447c31,-19 151,-258 172,-305l161 2 3 517 66 7 -1 206 -66 7 -4 154 -160 -3 -3 -154 -166 3c-10,76 -10,400 15,458l5 46c16,47 92,402 89,447l-102 2 -5 -47c-16,127 19,356 -29,356 -29,-10 -17,18 -24,-38l0 -388 -69 1 -25 114 -174 0 -72 -237c-46,47 -22,155 -31,239l-101 -6c-10,-77 -13,-519 5,-570 31,-12 55,-9 97,-6l4 196c-4,0 1,3 9,-8l84 -193 97 3c-1,37 -52,131 -71,165 -47,85 5,105 16,194l54 153c18,-96 43,-188 65,-284 53,-238 22,-220 113,-231l-1 -362c-34,-15 -26,3 -58,-21 -20,-367 61,-169 59,-406 -1,-149 7,-312 -2,-461l-58 -13 -39 -271 -78 1 -4 270c-50,17 -116,10 -171,4l-4 -277 -79 1c-26,47 -56,299 -292,300 -213,1 -241,-215 -283,-302l-504 3c0,28 2,22 13,49 32,11 77,136 74,205l-139 -87c-35,-27 -43,-110 -121,-122 -1,61 -4,130 -2,190 3,83 19,15 18,166 0,61 14,116 30,165l44 123c10,14 7,9 16,18 35,-21 44,-39 83,-72 9,9 88,122 67,163l0 30c47,28 82,209 192,305 63,55 53,64 81,93 96,152 124,4 120,302 -54,4 -142,13 -183,-7 -9,-4 -39,-30 -54,-40 -162,-110 -140,-165 -219,-260 -26,-31 -17,-21 -37,-58 -16,-30 -18,-25 -37,-57 -54,-94 -82,-154 -107,-256 -11,-42 -58,-129 -58,-154 37,-2 50,9 110,39l4 -26c-3,-16 -11,-25 -15,-35 -64,-143 -81,-477 -86,-624 -78,-17 -117,41 -144,78 -71,96 -22,47 -50,94 -68,-52 -11,-147 -13,-224l-342 -1c-73,1 -91,7 -91,-23 -1,-40 60,-24 133,-24 54,1 290,11 323,-8 23,-15 10,-26 62,-63 2,-1 11,-7 13,-9 2,-1 5,-4 7,-5 2,-1 5,-4 7,-5 -10,-22 -16,-32 -27,-53 -41,-76 -64,-14 -64,-177 0,-82 11,-128 74,-198 2,-3 8,-9 10,-11l12 -11c35,11 58,72 94,32 18,-19 -44,-34 88,-202 17,-22 6,2 20,-34 5,-13 7,-30 14,-49l99 -212c27,-36 35,-16 40,-76 -94,-9 -44,16 -200,66 -3,-91 35,-115 92,-152 47,-30 29,-85 185,-66 -1,-65 59,-252 138,-299 15,-10 31,-19 44,-28 26,-17 20,-20 62,-20 -3,64 -30,36 -9,104 26,-11 8,-3 31,-20l38 -25c2,-2 4,-3 6,-4 7,-5 59,-57 105,-84 31,-18 52,-12 90,-1l-60 134c-14,32 -32,35 -58,48 -32,16 -9,1 -32,21 -3,2 -21,22 -25,25 7,24 6,37 27,55l57 39c-13,35 -21,39 -55,62 -37,23 -41,38 -69,55 -77,47 -129,55 -145,63 -15,6 -34,-5 -29,99 4,93 -42,251 -116,246 17,-39 -5,-201 -25,-245l-21 -32c-30,54 -43,31 -85,137 -10,25 -23,61 -34,80 -19,34 -32,36 -37,77 -13,118 87,122 14,266 -8,16 -16,23 -20,32 -2,6 -5,-3 -5,23 0,20 3,28 23,32 10,2 1,11 58,2 24,-3 48,-11 82,-8 7,99 -66,238 -134,307 -43,44 -48,39 -18,90l551 1c27,-38 -6,-13 29,-40 38,-27 115,-59 164,-64 9,38 10,72 29,104l167 -3c18,-182 -157,-187 -249,-299 -97,-118 -118,-280 -84,-448 85,-414 527,-308 527,60 -32,20 -123,85 -166,91 -25,-42 -22,-93 -58,-131 -33,-34 -80,-34 -102,21 -76,183 219,223 298,398 58,131 27,174 45,310l75 0 5 -993c62,-9 222,-18 285,7l63 415 0 -870c-93,24 -255,198 -366,239l139 -439c-73,-66 -347,-235 -375,-281 80,-27 358,1 470,-11 28,-49 63,-177 83,-239 12,-36 29,-81 39,-117 21,-76 -15,-103 34,-126 28,12 24,33 25,65 3,105 87,323 121,419l476 4c-13,40 -156,125 -188,148 -51,36 -149,96 -193,139l141 444c-62,-34 -121,-83 -180,-125 -46,-31 -137,-102 -178,-119l4 1036 97 -592c81,-4 199,-16 267,5 42,111 -15,797 12,991l76 2 187 -993c50,-11 154,-13 202,2l172 989 670 0c1,-78 11,-126 -58,-148 -161,-50 -138,-9 -197,-125 -24,-47 -24,-49 -20,-108l54 42c38,22 36,34 83,51 91,31 52,49 104,116 8,-128 -10,-177 -28,-281 -19,-111 -52,-147 -79,-238 -72,1 -69,13 -141,-25 -48,-25 -96,-54 -126,-101l-24 -46c23,3 59,9 85,15 175,38 119,73 167,114l3 -44c-13,-51 -45,-82 -54,-134 -10,-55 -41,-134 -97,-153 -105,-36 -296,39 -320,-137 35,15 22,25 56,37 27,9 61,3 90,4 70,1 82,32 143,28 -4,-67 -61,-92 -93,-141 -53,-79 -103,-137 -191,-174 -32,-13 -36,-12 -56,-38l-8 -13c-18,-30 -18,-48 -43,-83 -31,-43 -33,-15 -52,-56 63,-6 137,11 178,45 52,43 55,102 73,157 11,35 177,229 209,239 7,-74 16,-128 17,-206 -13,-11 -29,-21 -40,-29 44,-21 149,40 151,124 1,37 0,65 -17,96 -53,99 -6,51 -71,82 7,40 23,50 41,82 36,61 59,138 87,203 10,23 4,18 15,38 34,-18 22,-16 28,-53 10,-60 49,-121 76,-173 16,19 33,48 38,73 13,60 -28,195 -80,237l-14 10c32,153 94,189 98,386 89,-15 88,-154 115,-208 46,32 75,126 42,187 -30,56 -63,110 -128,118l1 229c164,10 336,2 501,1 63,0 122,-22 128,37 -12,7 -4,5 -25,10 -83,19 -299,-6 -399,5 -2,66 43,120 -88,255 -27,28 1,17 -44,31 -28,8 -59,18 -88,43 -3,124 -67,306 -77,395 12,12 -21,14 31,11zm-4109 -615c66,781 365,1307 774,1699 1572,1504 4179,334 4085,-1970 -54,-1332 -1166,-2448 -2573,-2375 -723,37 -1312,424 -1654,815 -410,468 -687,1170 -632,1831z"/>
   <path class="fil1" d="M2669 5016c-55,-661 222,-1363 632,-1831 342,-391 931,-778 1654,-815 1407,-73 2519,1043 2573,2375 94,2304 -2513,3474 -4085,1970 -409,-392 -708,-918 -774,-1699zm653 -2675c-15,154 16,350 -6,498 -6,46 -178,163 -257,240 -762,737 -735,1356 -790,1468 -29,57 -332,219 -420,269l-43 33c56,49 195,117 269,161l144 75c34,17 36,25 43,63 64,324 64,437 222,766 87,182 222,391 345,530 137,155 175,199 328,328 167,141 110,9 102,348 -2,81 -12,197 -4,273 57,-14 344,-174 406,-213 84,-54 96,-13 211,33 439,176 776,256 1302,250 438,-5 872,-116 1241,-289 215,-101 132,-93 442,54 52,25 160,87 209,98 6,-122 -22,-309 -28,-445 -6,-145 25,-116 199,-292 161,-163 287,-334 419,-560 114,-198 204,-462 255,-712 10,-48 19,-170 34,-206 14,-36 42,-38 75,-51 47,-20 368,-207 381,-232 -53,-34 -313,-189 -397,-225 -90,-38 -82,-88 -101,-192 -85,-472 -332,-872 -632,-1200 -176,-192 -190,-131 -167,-283 12,-85 53,-338 46,-408l-431 177c-56,26 -64,22 -113,-8 -380,-231 -874,-351 -1335,-386 -423,-32 -960,63 -1332,219 -201,84 -113,101 -418,-72 -57,-32 -139,-84 -199,-109z"/>
   <path class="fil2" d="M5330 5360l110 -3 2 512 66 17 -2 140 -65 13c-9,117 41,175 -104,147l-7 -154 -272 -4c-10,-222 29,-216 107,-366l165 -302zm1509 -289l1 -177 164 -1c-20,70 -115,129 -136,150l-29 28zm-182 -176l161 -3c25,132 -27,197 -28,303l-7 -16c-27,-109 -2,-140 -104,-252 -19,-20 -14,-21 -22,-32zm-961 247l-127 1 231 -1263 149 -3c26,90 219,1205 217,1265l-137 0 -44 -258c-53,-13 -185,-15 -246,-1l-43 259zm-381 -804l2 505 -77 3c-7,-57 59,-453 75,-508zm-262 801c-26,-175 -49,-347 -70,-516 -10,-86 -22,-170 -35,-257 -10,-71 -20,-239 -45,-262 -25,14 -24,-32 -23,110 0,45 1,90 1,135 -1,143 8,739 -6,795l-101 1c-16,-47 -16,-1154 -6,-1265 312,-4 200,-73 284,392 15,83 35,373 70,407 27,-31 125,-701 138,-797l220 -5 0 1264 -129 1c-7,-144 11,-1035 -11,-1080 -31,10 -30,48 -39,121l-133 898c-11,79 -31,69 -115,58zm-944 -313c33,-15 78,-38 117,-40 24,52 29,180 146,176 88,-3 128,-114 104,-205 -38,-144 -236,-124 -317,-352 -124,-343 138,-683 344,-499 46,40 109,157 97,235 -24,25 -75,52 -103,62 -26,-36 -18,-63 -53,-104 -116,-137 -240,99 -126,210 103,100 269,121 303,365 28,196 -32,426 -184,478 -201,69 -332,-151 -328,-326zm867 -1880c27,-42 97,-293 134,-375l126 375 410 4c-11,4 -129,94 -161,117 -53,37 -110,87 -165,114 0,106 100,276 112,384 -62,-29 -294,-217 -321,-219 -85,26 -236,180 -331,218l119 -371c-58,-62 -253,-171 -325,-246l402 -1zm-1468 1898c16,23 -7,4 19,19 19,12 11,7 31,10 -9,18 -15,14 -11,38 10,52 21,29 40,34 -11,-27 -13,-21 -13,-49l504 -3c42,87 70,303 283,302 236,-1 266,-253 292,-300l79 -1 4 277c55,6 121,13 171,-4l4 -270 78 -1 39 271 58 13c9,149 1,312 2,461 2,237 -79,39 -59,406 32,24 24,6 58,21l1 362c-91,11 -60,-7 -113,231 -22,96 -47,188 -65,284l-54 -153c-2,69 41,113 41,172l-5 31 -61 9c-27,-69 -51,-195 -79,-253 -31,17 -46,79 -46,129 0,98 28,133 -72,122 -19,-57 -8,-208 -8,-278l3 -250c1,-4 3,-6 4,-10l9 -19c64,-2 67,3 65,91 -1,44 -2,99 8,135 22,-29 13,-10 15,-48 -8,11 -13,8 -9,8l-4 -196c-42,-3 -66,-6 -97,6 -18,51 -15,493 -5,570l101 6c9,-84 -15,-192 31,-239l72 237 174 0 25 -114 69 -1 0 388c7,56 -5,28 24,38 48,0 13,-229 29,-356l5 47 102 -2c3,-45 -73,-400 -89,-447 -12,88 68,318 78,435 -3,0 -49,1 -52,0 -85,-19 18,-120 -114,-119 -1,0 -30,2 -30,3 -59,11 -33,35 -46,73 -16,48 13,35 -60,35 -30,-43 -3,-79 9,-137l87 -404c39,-5 38,-10 90,-9 25,108 9,70 33,77 -25,-58 -25,-382 -15,-458l166 -3 3 154 160 3 4 -154 66 -7 1 -206 -66 -7 -3 -517 -161 -2c-21,47 -141,286 -172,305l-1 -447c30,-15 20,-1 51,-21l41 -269 87 1 4 279 192 2 3 -277 63 -5c2,89 -43,188 -38,280l186 1 39 -263 192 -2 43 262 205 3 -40 -280 423 0c17,98 -21,63 42,156l38 68c49,85 113,97 124,127 6,93 -20,106 -36,183 -17,80 -6,82 -39,182 -45,-17 -42,-67 -104,-95 -19,33 -30,34 -14,62l21 -31c42,22 31,20 56,54 21,28 35,25 30,70 4,-4 20,-20 28,-23 24,-13 16,-1 46,-16 -52,3 -19,1 -31,-11 10,-89 74,-271 77,-395 29,-25 60,-35 88,-43 45,-14 17,-3 44,-31 131,-135 86,-189 88,-255 100,-11 316,14 399,-5 21,-5 13,-3 25,-10 -6,-59 -65,-37 -128,-37 -165,1 -337,9 -501,-1l-1 -229c65,-8 98,-62 128,-118 33,-61 4,-155 -42,-187 -27,54 -26,193 -115,208 -4,-197 -66,-233 -98,-386l14 -10c52,-42 93,-177 80,-237 -5,-25 -22,-54 -38,-73 -27,52 -66,113 -76,173 -6,37 6,35 -28,53 -11,-20 -5,-15 -15,-38 -28,-65 -51,-142 -87,-203 -18,-32 -34,-42 -41,-82 65,-31 18,17 71,-82 17,-31 18,-59 17,-96 -2,-84 -107,-145 -151,-124 11,8 27,18 40,29 -1,78 -10,132 -17,206 -32,-10 -198,-204 -209,-239 -18,-55 -21,-114 -73,-157 -41,-34 -115,-51 -178,-45 19,41 21,13 52,56 25,35 25,53 43,83l8 13c20,26 24,25 56,38 88,37 138,95 191,174 32,49 89,74 93,141 -61,4 -73,-27 -143,-28 -29,-1 -63,5 -90,-4 -34,-12 -21,-22 -56,-37 24,176 215,101 320,137 56,19 87,98 97,153 9,52 41,83 54,134l-3 44c-48,-41 8,-76 -167,-114 -26,-6 -62,-12 -85,-15l24 46c30,47 78,76 126,101 72,38 69,26 141,25 27,91 60,127 79,238 18,104 36,153 28,281 -52,-67 -13,-85 -104,-116 -47,-17 -45,-29 -83,-51l-54 -42c-4,59 -4,61 20,108 59,116 36,75 197,125 69,22 59,70 58,148l-670 0 -172 -989c-48,-15 -152,-13 -202,-2l-187 993 -76 -2c-27,-194 30,-880 -12,-991 -68,-21 -186,-9 -267,-5l-97 592 -4 -1036c41,17 132,88 178,119 59,42 118,91 180,125l-141 -444c44,-43 142,-103 193,-139 32,-23 175,-108 188,-148l-476 -4c-34,-96 -118,-314 -121,-419 -1,-32 3,-53 -25,-65 -49,23 -13,50 -34,126 -10,36 -27,81 -39,117 -20,62 -55,190 -83,239 -112,12 -390,-16 -470,11 28,46 302,215 375,281l-139 439c111,-41 273,-215 366,-239l0 870 -63 -415c-63,-25 -223,-16 -285,-7l-5 993 -75 0c-18,-136 13,-179 -45,-310 -79,-175 -374,-215 -298,-398 22,-55 69,-55 102,-21 36,38 33,89 58,131 43,-6 134,-71 166,-91 0,-368 -442,-474 -527,-60 -34,168 -13,330 84,448 92,112 267,117 249,299l-167 3c-19,-32 -20,-66 -29,-104 -49,5 -126,37 -164,64 -35,27 -2,2 -29,40l-551 -1z"/>
   <path class="fil3" d="M3322 2341c60,25 142,77 199,109 305,173 217,156 418,72 372,-156 909,-251 1332,-219 461,35 955,155 1335,386 49,30 57,34 113,8l431 -177c7,70 -34,323 -46,408 -23,152 -9,91 167,283 300,328 547,728 632,1200 19,104 11,154 101,192 84,36 344,191 397,225 -13,25 -334,212 -381,232 -33,13 -61,15 -75,51 -15,36 -24,158 -34,206 -51,250 -141,514 -255,712 -132,226 -258,397 -419,560 -174,176 -205,147 -199,292 6,136 34,323 28,445 -49,-11 -157,-73 -209,-98 -310,-147 -227,-155 -442,-54 -369,173 -803,284 -1241,289 -526,6 -863,-74 -1302,-250 -115,-46 -127,-87 -211,-33 -62,39 -349,199 -406,213 -8,-76 2,-192 4,-273 8,-339 65,-207 -102,-348 -153,-129 -191,-173 -328,-328 -123,-139 -258,-348 -345,-530 -158,-329 -158,-442 -222,-766 -7,-38 -9,-46 -43,-63l-144 -75c-74,-44 -213,-112 -269,-161l43 -33c88,-50 391,-212 420,-269 55,-112 28,-731 790,-1468 79,-77 251,-194 257,-240 22,-148 -9,-344 6,-498zm-46 -67l2 566c-248,169 -501,443 -671,703 -172,265 -329,604 -378,997 -55,48 -185,112 -254,152l-236 140c-14,11 -8,5 -17,17 70,66 226,137 321,195 217,132 156,41 205,304 24,133 69,275 115,395 138,355 348,672 618,934 41,39 85,74 133,118 63,58 106,47 104,158 -2,170 -14,343 -12,512 65,-13 349,-175 421,-214 115,-63 99,-50 219,1 82,34 139,59 229,91 333,116 851,209 1241,160 48,-6 100,1 148,-7 39,-6 100,-16 139,-22l139 -25c298,-70 444,-112 712,-236 114,-53 101,-86 224,-23 75,39 372,193 435,205 3,-121 -38,-518 -32,-566 6,-58 62,-76 99,-109 131,-118 205,-234 281,-312 127,-129 312,-472 370,-643 36,-105 72,-194 98,-299 28,-110 51,-226 64,-341l497 -283c-17,-38 -78,-60 -141,-96 -53,-30 -100,-58 -151,-88 -221,-128 -223,-98 -241,-235 -31,-224 -146,-494 -253,-698 -51,-98 -125,-214 -177,-291 -33,-48 -72,-81 -109,-131l-227 -242c-74,-68 -49,-65 -38,-181 14,-134 50,-295 50,-428 -58,8 -379,150 -452,182 -126,54 -93,25 -205,-33 -288,-147 -379,-166 -699,-259 -185,-54 -362,-60 -560,-84 -392,-48 -1011,73 -1360,220 -113,48 -118,82 -227,22 -73,-41 -361,-218 -424,-226z"/>
   <path class="fil1" d="M3465 5631l23 18c27,-29 62,-73 102,-84 30,40 42,87 67,129 21,-41 -58,-154 -67,-163 -39,33 -48,51 -83,72 -9,-9 -6,-4 -16,-18l-44 -123c-16,-49 -30,-104 -30,-165 1,-151 -15,-83 -18,-166 -2,-60 1,-129 2,-190 78,12 86,95 121,122l139 87c3,-69 -42,-194 -74,-205 -19,-5 -30,18 -40,-34 -4,-24 2,-20 11,-38 -20,-3 -12,2 -31,-10 -26,-15 -3,4 -19,-19 -30,-51 -25,-46 18,-90 68,-69 141,-208 134,-307 -34,-3 -58,5 -82,8 -57,9 -48,0 -58,-2 -20,-4 -23,-12 -23,-32 0,-26 3,-17 5,-23 4,-9 12,-16 20,-32 73,-144 -27,-148 -14,-266 5,-41 18,-43 37,-77 11,-19 24,-55 34,-80 42,-106 55,-83 85,-137l21 32c20,44 42,206 25,245 74,5 120,-153 116,-246 -5,-104 14,-93 29,-99 16,-8 68,-16 145,-63 28,-17 32,-32 69,-55 34,-23 42,-27 55,-62l-57 -39c-21,-18 -20,-31 -27,-55 4,-3 22,-23 25,-25 23,-20 0,-5 32,-21 26,-13 44,-16 58,-48l60 -134c-38,-11 -59,-17 -90,1 -46,27 -98,79 -105,84 -2,1 -4,2 -6,4l-38 25c-23,17 -5,9 -31,20 -21,-68 6,-40 9,-104 -42,0 -36,3 -62,20 -13,9 -29,18 -44,28 -79,47 -139,234 -138,299 -156,-19 -138,36 -185,66 -57,37 -95,61 -92,152 156,-50 106,-75 200,-66 -5,60 -13,40 -40,76l-99 212c-7,19 -9,36 -14,49 -14,36 -3,12 -20,34 -132,168 -70,183 -88,202 -36,40 -59,-21 -94,-32l-12 11c-2,2 -8,8 -10,11 -63,70 -74,116 -74,198 0,163 23,101 64,177 11,21 17,31 27,53 -2,1 -5,4 -7,5 -2,1 -5,4 -7,5 -2,2 -11,8 -13,9 -52,37 -39,48 -62,63 -33,19 -269,9 -323,8 -73,0 -134,-16 -133,24 0,30 18,24 91,23l342 1c2,77 -55,172 13,224 28,-47 -21,2 50,-94 27,-37 66,-95 144,-78 5,147 22,481 86,624 4,10 12,19 15,35l-4 26z"/>
   <path class="fil4" d="M5053 5139c84,11 104,21 115,-58l133 -898c9,-73 8,-111 39,-121 22,45 4,936 11,1080l129 -1 0 -1264 -220 5c-13,96 -111,766 -138,797 -35,-34 -55,-324 -70,-407 -84,-465 28,-396 -284,-392 -10,111 -10,1218 6,1265l101 -1c14,-56 5,-652 6,-795 0,-45 -1,-90 -1,-135 -1,-142 -2,-96 23,-110 25,23 35,191 45,262 13,87 25,171 35,257 21,169 44,341 70,516z"/>
   <path class="fil4" d="M5803 4646c3,-65 34,-322 61,-366l55 370 -116 -4zm-64 237c61,-14 193,-12 246,1l44 258 137 0c2,-60 -191,-1175 -217,-1265l-149 3 -231 1263 127 -1 43 -259z"/>
   <path class="fil4" d="M4109 4826c-4,175 127,395 328,326 152,-52 212,-282 184,-478 -34,-244 -200,-265 -303,-365 -114,-111 10,-347 126,-210 35,41 27,68 53,104 28,-10 79,-37 103,-62 12,-78 -51,-195 -97,-235 -206,-184 -468,156 -344,499 81,228 279,208 317,352 24,91 -16,202 -104,205 -117,4 -122,-124 -146,-176 -39,2 -84,25 -117,40z"/>
   <path class="fil5" d="M4976 2946l-402 1c72,75 267,184 325,246l-119 371c95,-38 246,-192 331,-218 27,2 259,190 321,219 -12,-108 -112,-278 -112,-384 55,-27 112,-77 165,-114 32,-23 150,-113 161,-117l-410 -4 -126 -375c-37,82 -107,333 -134,375z"/>
   <path class="fil4" d="M5330 5582c18,39 11,185 10,237 -2,55 -8,60 -61,62 -159,5 -132,-7 -48,-161 31,-55 63,-133 99,-138zm-165 80c-78,150 -117,144 -107,366l272 4 7 154c145,28 95,-30 104,-147l65 -13 2 -140 -66 -17 -2 -512 -110 3 -165 302z"/>
   <path class="fil6" d="M5386 6541l58 9c19,39 22,87 -1,127l-61 8 4 -144zm195 475c2,-57 -36,-146 -55,-206 -27,-84 31,-61 42,-171 21,-211 -107,-219 -290,-204 -13,66 -13,508 -2,583l104 -5c4,-48 -2,-191 12,-221 44,12 50,137 83,226l106 -2z"/>
   <path class="fil5" d="M6597 5577c-5,40 -169,310 -196,353 -41,66 -54,34 -55,110 -8,16 -115,121 -140,144 -41,40 -46,33 -48,103 -3,69 -18,65 -15,136 52,-21 149,-98 182,-142 36,-48 -7,-24 68,-98 24,-25 65,-60 82,-84l62 -95c17,-24 21,-28 35,-48 24,-32 14,-14 27,-58 24,-84 34,-58 68,-137 30,-72 30,-31 37,-91 5,-45 -9,-42 -30,-70 -25,-34 -14,-32 -56,-54l-21 31z"/>
   <path class="fil4" d="M4596 5582l0 144c126,-15 160,-261 160,82l1 376 115 1c11,-219 6,-605 4,-827l-93 -2c-21,38 -44,101 -70,135 -40,52 -82,58 -117,91z"/>
   <path class="fil5" d="M3488 5649c11,56 177,383 213,433 56,77 249,293 331,322 4,-155 20,-158 -116,-273 10,-16 -5,-4 14,-9 -28,-29 -18,-38 -81,-93 -110,-96 -145,-277 -192,-305l0 -30c-25,-42 -37,-89 -67,-129 -40,11 -75,55 -102,84z"/>
   <path class="fil6" d="M4238 7014c147,18 82,-18 123,-114l98 1 25 117 106 -3c2,-48 -105,-539 -125,-583l-97 5 -15 41c-3,11 -6,23 -8,34 -24,103 -106,446 -107,502z"/>
   <path class="fil6" d="M5943 6900l103 2 23 115 112 0 -126 -583 -101 -1c-19,40 -129,525 -130,584l95 -1 24 -116z"/>
   <path class="fil7" d="M3930 6122c-19,5 -4,-7 -14,9 136,115 120,118 116,273 -82,-29 -275,-245 -331,-322 -36,-50 -202,-377 -213,-433l-23 -18c-60,-30 -73,-41 -110,-39 0,25 47,112 58,154 25,102 53,162 107,256 19,32 21,27 37,57 20,37 11,27 37,58 79,95 57,150 219,260 15,10 45,36 54,40 41,20 129,11 183,7 4,-298 -24,-150 -120,-302z"/>
   <path class="fil7" d="M6778 5631c-30,15 -22,3 -46,16 -8,3 -24,19 -28,23 -7,60 -7,19 -37,91 -34,79 -44,53 -68,137 -13,44 -3,26 -27,58 -14,20 -18,24 -35,48l-62 95c-17,24 -58,59 -82,84 -75,74 -32,50 -68,98 -33,44 -130,121 -182,142 -3,-71 12,-67 15,-136 2,-70 7,-63 48,-103 25,-23 132,-128 140,-144 -34,6 -60,48 -85,73 -151,153 -108,81 -121,204 -12,109 -84,167 161,110 49,-12 21,9 82,-56 1,-2 3,-4 5,-6 1,-1 3,-4 4,-5l63 -62c1,-2 3,-4 5,-6 1,-1 4,-4 5,-5 32,-36 115,-127 126,-167 24,-91 7,-28 47,-87 8,-12 1,-1 8,-14 58,-117 55,-56 93,-155 35,-88 97,-184 113,-285 -23,11 -46,33 -74,52z"/>
   <path class="fil6" d="M4730 6623c-2,38 7,19 -15,48 -10,-36 -9,-91 -8,-135 2,-88 -1,-93 -65,-91l-9 19c-1,4 -3,6 -4,10l-3 250c0,70 -11,221 8,278 100,11 72,-24 72,-122 0,-50 15,-112 46,-129 28,58 52,184 79,253l61 -9 5 -31c0,-59 -43,-103 -41,-172 -11,-89 -63,-109 -16,-194 19,-34 70,-128 71,-165l-97 -3 -84 193z"/>
   <path class="fil6" d="M5158 6568l-5 -46c-24,-7 -8,31 -33,-77 -52,-1 -51,4 -90,9l-87 404c-12,58 -39,94 -9,137 73,0 44,13 60,-35 13,-38 -13,-62 46,-73 0,-1 29,-3 30,-3 132,-1 29,100 114,119 3,1 49,0 52,0 -10,-117 -90,-347 -78,-435z"/>
   <path class="fil6" d="M5667 6562l6 455 106 -3 2 -455c36,-3 52,2 84,-12l-5 -115 -273 3 2 117 78 10z"/>
   <path class="fil8" d="M4596 5582c35,-33 77,-39 117,-91 26,-34 49,-97 70,-135l93 2c2,222 7,608 -4,827l-115 -1 -1 -376c0,-343 -34,-97 -160,-82l0 -144zm-30 187c66,12 99,-58 156,-76 2,176 -6,352 10,526 225,7 178,5 178,-141l1 -697c0,-85 -63,-63 -149,-57 -30,43 -37,92 -76,141 -42,52 -71,55 -124,96l4 208z"/>
   <path class="fil6" d="M4040 7014c157,39 184,-42 186,-185 2,-87 14,-329 -8,-390 -31,-11 -61,-12 -100,1 -9,133 15,330 -11,453l-70 8 3 113z"/>
   <path class="fil9" d="M5803 4646l116 4 -55 -370c-27,44 -58,301 -61,366z"/>
   <path class="fil8" d="M5208 5846c15,-65 73,-130 97,-179l-2 179 -95 0zm122 -264c-36,5 -68,83 -99,138 -84,154 -111,166 48,161 53,-2 59,-7 61,-62 1,-52 8,-198 -10,-237z"/>
   <path class="fil9" d="M5315 4338c-16,55 -82,451 -75,508l77 -3 -2 -505z"/>
   <path class="fil9" d="M6657 4895c8,11 3,12 22,32 102,112 77,143 104,252l7 16c1,-106 53,-171 28,-303l-161 3z"/>
   <path class="fil9" d="M6868 5043c21,-21 116,-80 136,-150l-164 1 -1 177 29 -28z"/>
   <path class="fil9" d="M5382 6685l61 -8c23,-40 20,-88 1,-127l-58 -9 -4 144z"/>
   <path class="fil9" d="M5208 5846l95 0 2 -179c-24,49 -82,114 -97,179z"/>
  </g>
 </g>
</svg>
